<?xml version="1.0" encoding="UTF-8" standalone="no"?>
<!DOCTYPE svg PUBLIC "-//W3C//DTD SVG 1.1//EN" "http://www.w3.org/Graphics/SVG/1.1/DTD/svg11.dtd">
<svg width="100%" height="100%" viewBox="0 0 500 500" version="1.1" xmlns="http://www.w3.org/2000/svg" xmlns:xlink="http://www.w3.org/1999/xlink" xml:space="preserve" xmlns:serif="http://www.serif.com/" style="fill-rule:evenodd;clip-rule:evenodd;stroke-linecap:round;stroke-linejoin:round;stroke-miterlimit:1.5;">
    <g transform="matrix(1,0,0,1,-9.72267,-6.93474)">
        <g transform="matrix(2.62665,0,0,2.62665,-324.244,-471.433)">
            <path d="M215.325,340.063C209.348,318.227 213.567,300.052 225.453,286.253C238.684,270.894 261.416,260.959 290.162,257.435L290.194,257.772C292.89,286.454 288.087,310.668 275.995,326.84C264.486,342.231 246.376,350.337 221.842,348.077C226.697,340.918 233.39,334.388 241.607,328.792C241.993,328.529 242.383,328.268 242.777,328.008C251.591,323.019 259.58,316.829 264.293,308.084C268.59,300.112 269.738,293.468 270.687,283.048C245.068,290.645 226.996,308.125 219.158,326.547C219.024,326.819 218.894,327.108 218.769,327.417C217.093,331.538 215.935,335.761 215.325,340.063Z" style="fill:rgb(0,136,122);stroke:rgb(0,136,122);stroke-width:0.3px;"/>
            <path d="M199.473,341.188C193.626,321.916 195.977,304.032 203.708,289.602C192.977,278.659 175.756,271.551 154.33,268.924L154.304,269.192C152.162,291.985 155.979,311.228 165.589,324.08C173.24,334.313 184.564,340.494 199.473,341.188Z" style="fill:rgb(0,136,122);stroke:rgb(0,136,122);stroke-width:0.3px;"/>
        </g>
        <g transform="matrix(2.62665,0,0,2.62665,-323.886,-471.433)">
            <path d="M210.215,278.99L210.215,225.144L159.54,225.144C158.797,225.144 158.124,224.97 157.521,224.623C156.918,224.276 156.43,223.734 156.059,222.997C155.688,222.259 155.386,221.284 155.154,220.069C154.922,218.855 154.806,217.424 154.806,215.776C154.806,214.128 154.922,212.675 155.154,211.417C155.386,210.159 155.688,209.14 156.059,208.359C156.43,207.579 156.918,207.015 157.521,206.668C158.124,206.321 158.797,206.147 159.54,206.147L284.836,206.147C285.578,206.147 286.251,206.321 286.854,206.668C287.458,207.015 287.968,207.579 288.386,208.359C288.803,209.14 289.105,210.159 289.291,211.417C289.476,212.675 289.569,214.128 289.569,215.776C289.569,217.424 289.476,218.855 289.291,220.069C289.105,221.284 288.803,222.259 288.386,222.997C287.968,223.734 287.458,224.276 286.854,224.623C286.251,224.97 285.578,225.144 284.836,225.144L234.16,225.144L234.16,258.245C225.753,263.194 218.632,269.027 212.961,275.61C212.009,276.715 211.093,277.842 210.215,278.99Z" style="fill:rgb(0,136,122);fill-rule:nonzero;stroke:rgb(0,136,122);stroke-width:0.38px;stroke-linecap:butt;stroke-miterlimit:2;"/>
        </g>
    </g>
</svg>
